<?xml version="1.0" encoding="UTF-8" standalone="no"?>
<!-- Created with Inkscape (http://www.inkscape.org/) -->

<svg
   xmlns:dc="http://purl.org/dc/elements/1.1/"
   xmlns:cc="http://creativecommons.org/ns#"
   xmlns:rdf="http://www.w3.org/1999/02/22-rdf-syntax-ns#"
   xmlns:svg="http://www.w3.org/2000/svg"
   xmlns="http://www.w3.org/2000/svg"
   xmlns:sodipodi="http://sodipodi.sourceforge.net/DTD/sodipodi-0.dtd"
   xmlns:inkscape="http://www.inkscape.org/namespaces/inkscape"
   width="210mm"
   height="297mm"
   viewBox="0 0 210 297"
   version="1.1"
   id="svg8"
   inkscape:version="0.92.2 (5c3e80d, 2017-08-06)"
   sodipodi:docname="drawing.svg">
  <defs
     id="defs2">
    <inkscape:perspective
       sodipodi:type="inkscape:persp3d"
       inkscape:vp_x="0 : 148.5 : 1"
       inkscape:vp_y="0 : 1000 : 0"
       inkscape:vp_z="210 : 148.5 : 1"
       inkscape:persp3d-origin="105 : 99 : 1"
       id="perspective3735" />
  </defs>
  <sodipodi:namedview
     id="base"
     pagecolor="#ffffff"
     bordercolor="#666666"
     borderopacity="1.0"
     inkscape:pageopacity="0.0"
     inkscape:pageshadow="2"
     inkscape:zoom="0.35"
     inkscape:cx="400"
     inkscape:cy="560"
     inkscape:document-units="mm"
     inkscape:current-layer="layer1"
     showgrid="false"
     inkscape:window-width="1366"
     inkscape:window-height="705"
     inkscape:window-x="-8"
     inkscape:window-y="-8"
     inkscape:window-maximized="1" />
  <metadata
     id="metadata5">
    <rdf:RDF>
      <cc:Work
         rdf:about="">
        <dc:format>image/svg+xml</dc:format>
        <dc:type
           rdf:resource="http://purl.org/dc/dcmitype/StillImage" />
        <dc:title></dc:title>
      </cc:Work>
    </rdf:RDF>
  </metadata>
  <g
     inkscape:label="Layer 1"
     inkscape:groupmode="layer"
     id="layer1">
    <path
       style="fill:none;stroke:#000000;stroke-width:0.26458332px;stroke-linecap:butt;stroke-linejoin:miter;stroke-opacity:1"
       d="m -98.273808,13.517857 c 0.251984,1.25992 0.14069,2.651778 0.755952,3.779762 0.942408,1.72775 2.664801,2.913951 3.779763,4.535714 1.664809,2.421542 2.934203,5.095662 4.535712,7.559523 5.287296,8.134299 11.477324,15.64273 18.142858,22.678572 11.727944,12.379497 1.680535,1.659456 13.607142,12.095239 1.877314,1.64265 3.387389,3.680352 5.291667,5.291667 1.387136,1.173728 3.023809,2.015871 4.535715,3.023809 1.511905,1.007935 3.023809,2.015871 4.535715,3.023809 0.755951,0.503968 1.455232,1.105593 2.267857,1.511903 0.590434,0.29522 3.119229,0.851374 3.779761,1.511906 0.398423,0.398423 0.357531,1.113483 0.755951,1.511906 0.398423,0.39842 1.043083,0.443402 1.511906,0.755952 0.296508,0.197672 0.503968,0.503967 0.755952,0.755951 0.503968,0.251984 1.043083,0.443405 1.511906,0.755952 1.039963,0.693311 0.777481,1.166222 1.511903,2.267857 1.157801,1.736701 0.4318,-0.324154 2.267858,1.511906 0.398422,0.39842 0.443404,1.043083 0.755951,1.511903 0.197673,0.296511 0.558282,0.459444 0.755954,0.755955 0.312547,0.46882 0.443405,1.043082 0.755952,1.511903 0.197673,0.296511 0.55828,0.459444 0.755952,0.755954 2.54595,3.818925 0.0058,0.01752 0.755953,2.267855 0.178179,0.53454 0.619294,0.965274 0.755952,1.511906 0.12223,0.488921 -0.09884,1.017722 0,1.511906 0.156274,0.781367 0.599679,1.486487 0.755952,2.267855 0.09884,0.494183 -0.09884,1.017725 0,1.511905 0.312548,1.562743 1.199357,2.972973 1.511905,4.535713 0.247091,1.23546 -0.207129,2.53699 0,3.77976 1.10598,6.63589 0.278078,-1.15554 1.511905,3.77977 0.12223,0.48892 -0.08285,1.01479 0,1.5119 0.170803,1.02482 0.470529,2.02483 0.755952,3.02381 0.21891,0.76618 0.643262,1.47902 0.755953,2.26786 0.932133,6.52493 -1.973409,-0.9787 1.511904,8.31547 0.871403,2.32374 2.078882,4.50875 3.02381,6.80357 1.862267,4.52265 3.180785,9.17429 5.2916666,13.60715 1.3574517,2.85064 3.1237034,5.49145 4.5357142,8.31547 1.3616472,2.7233 2.2691499,5.67191 3.77976182,8.31548 1.52605304,2.67059 3.64917978,4.95892 5.29166658,7.55952 1.385357,2.19349 2.4643818,4.56743 3.7797618,6.80357 1.205295,2.049 2.574467,3.99862 3.779762,6.04762 3.271837,5.56213 6.0189,11.39429 9.827381,16.63095 0.949006,1.30489 1.882903,2.63886 3.023809,3.77977 4.718221,4.71822 2.383577,1.71247 7.559523,4.53571 7.932201,4.32665 1.139037,2.08142 10.583333,6.80357 1.925662,0.96283 4.041058,1.48753 6.047621,2.26786 15.434273,6.00222 -0.571259,0.28628 15.875,5.29167 23.453116,7.1379 -6.449907,-1.00946 19.654761,5.29166 5.908569,1.42621 14.986531,4.26165 21.166664,5.29167 1.32718,0.22119 25.55263,2.96538 26.45833,3.02381 3.269,0.2109 6.55159,0 9.82739,0 3.52777,0 7.05555,0 10.58333,0 3.52778,0 7.06774,0.29296 10.58333,0 2.56087,-0.21341 5.02123,-1.11112 7.55953,-1.51191 17.60537,-1.95615 -2.60879,0.67295 12.09523,-2.26785 5.37388,-1.07478 0.0347,1.47723 3.02381,-1.51191 0.17818,-0.17818 0.64327,0.22538 0.75596,0 0.22538,-0.45076 -0.12224,-1.02298 0,-1.5119 0.13665,-0.54663 0.64545,-0.9594 0.75595,-1.51191 0.14825,-0.74127 0,-1.5119 0,-2.26785 0,-1.51191 0,-3.02381 0,-4.53572 0,-2.01587 0.12574,-4.03567 0,-6.04762 -0.12673,-2.0276 -0.50397,-4.03174 -0.75595,-6.04762 -0.25199,-2.77182 -0.61697,-5.53569 -0.75596,-8.31547 -0.11325,-2.26503 0.10787,-4.53828 0,-6.80357 -1.03968,-21.83342 -0.43299,3.11238 -1.5119,-17.38691 -0.10595,-2.01308 0,-4.03174 0,-6.04762 0,-4.53571 0,-9.07142 0,-13.60714"
       id="path3699"
       inkscape:connector-curvature="0" />
    <path
       style="fill:none;stroke:#000000;stroke-width:0.26458332px;stroke-linecap:butt;stroke-linejoin:miter;stroke-opacity:1"
       d="M 217.71428,109.52381 -154.97024,90.625"
       id="path3701"
       inkscape:connector-curvature="0" />
    <path
       style="fill:none;stroke:#000000;stroke-width:0.26458332px;stroke-linecap:butt;stroke-linejoin:miter;stroke-opacity:1"
       d="m -68.035714,37.708334 c 1.259922,0 2.52957,-0.156276 3.779763,0 0.790689,0.09884 1.494803,0.56269 2.267858,0.755952 1.246507,0.311626 2.519841,0.503968 3.77976,0.755951 5.282756,1.056553 2.512373,0.544722 8.315476,1.511906"
       id="path3703"
       inkscape:connector-curvature="0" />
    <path
       style="fill:none;stroke:#000000;stroke-width:0.26458332px;stroke-linecap:butt;stroke-linejoin:miter;stroke-opacity:1"
       d="m 68.035714,12.005952 c 5.603515,11.207032 0.348951,1.322998 6.047618,10.583333 1.064737,1.730196 1.872872,3.617576 3.02381,5.291668 1.943152,2.826403 9.483084,11.88816 11.339284,14.363094 1.845517,2.460688 3.356343,5.168828 5.291667,7.559524 2.356985,2.91157 5.332928,5.303022 7.559527,8.315475 2.08077,2.815162 3.45697,6.09005 5.29166,9.07143 4.87208,7.917127 10.33623,15.463155 15.11905,23.434524 2.66955,4.449247 4.99837,9.094629 7.55953,13.60714 9.14027,16.10429 6.72182,11.71155 15.875,26.45834 2.02843,3.26803 4.00904,6.56566 6.04761,9.82737 5.09669,8.15471 5.18682,7.85948 9.82739,15.875 1.29919,2.24408 5.72539,10.15576 6.80357,12.85119 0.6813,1.70327 0.97241,3.53832 1.5119,5.29167 0.46868,1.52322 0.96728,3.03798 1.51191,4.53572 1.00902,2.7748 1.86325,3.97131 2.26785,6.80357 0.10691,0.74835 -0.12428,1.52219 0,2.26785 1.10598,6.63589 0.27808,-1.15554 1.51191,3.77977 0.12223,0.48892 -0.0988,1.01772 0,1.5119 0.15627,0.78137 0.50397,1.51191 0.75595,2.26786 0.50397,1.5119 0.95232,3.0435 1.51191,4.53571 0.47646,1.27058 1.03543,2.50919 1.5119,3.77976 0.55958,1.49222 0.92002,3.05602 1.5119,4.53572 0.758,1.89499 1.75197,3.22812 2.26786,5.29167 0.16427,0.65709 0,2.27633 0,3.0238"
       id="path3705"
       inkscape:connector-curvature="0" />
    <path
       style="fill:none;stroke:#000000;stroke-width:0.26458332px;stroke-linecap:butt;stroke-linejoin:miter;stroke-opacity:1"
       d="M 213.93452,148.83333 251.73214,65.67857"
       id="path3707"
       inkscape:connector-curvature="0" />
    <path
       style="fill:none;stroke:#000000;stroke-width:0.26458332px;stroke-linecap:butt;stroke-linejoin:miter;stroke-opacity:1"
       d="m 251.73214,65.67857 80.13095,22.678573"
       id="path3709"
       inkscape:connector-curvature="0" />
    <path
       style="fill:none;stroke:#000000;stroke-width:0.26458332px;stroke-linecap:butt;stroke-linejoin:miter;stroke-opacity:1"
       d="m 300.11309,194.19047 c -2.38435,0.77805 -3.40122,3.1854 -5.29167,4.53572 -0.91699,0.655 -2.08616,0.88681 -3.02382,1.5119 -0.87225,0.5815 -1.39559,1.68636 -2.26785,2.26786 -0.46881,0.31255 -1.00793,0.50397 -1.5119,0.75595 -1.49233,0.74617 -3.10547,1.40971 -4.5357,2.26786 -0.77907,0.46744 -1.52855,0.98383 -2.26788,1.51191 -1.02523,0.73231 -1.92244,1.65598 -3.02379,2.26785 -1.18621,0.65901 -2.56606,0.90505 -3.77976,1.51191 -1.31421,0.65709 -2.51986,1.5119 -3.77978,2.26785 -2.51984,1.51191 -5.11445,2.90567 -7.55952,4.53572 -1.04831,0.69887 -1.92243,1.65598 -3.0238,2.26785 -2.02294,1.12386 -3.95853,1.48445 -6.04762,2.26786 -4.27938,1.60477 -3.89873,1.57139 -8.31548,3.77976 -1.5119,0.75596 -3.07562,1.41614 -4.53571,2.26786 -1.56956,0.91558 -2.98818,2.07148 -4.53572,3.02381 -1.73019,1.06474 -3.52778,2.01587 -5.29167,3.02381 -1.76388,1.00794 -3.47458,2.11527 -5.29166,3.02381 -1.71645,0.85823 -3.54924,1.46366 -5.29167,2.26786 -1.53478,0.70835 -2.97538,1.61771 -4.53571,2.26785 -7.19684,2.99869 -2.18398,-0.0559 -6.80357,3.02381"
       id="path3711"
       inkscape:connector-curvature="0" />
    <path
       style="fill:none;stroke:#000000;stroke-width:0.26458332px;stroke-linecap:butt;stroke-linejoin:miter;stroke-opacity:1"
       d="m 12.095238,233.5 c 0.02997,-7.83522 -0.307037,-15.63927 0.755952,-23.43453 0.38065,-2.79143 1.007937,-5.54365 1.511905,-8.31547 0.503968,-2.77183 1.007937,-5.54365 1.511905,-8.31548 0.503968,-2.77182 1.147521,-5.52187 1.511905,-8.31548 0.392452,-3.0088 0.363499,-6.06262 0.755952,-9.07142 1.768183,-13.55607 1.586527,-3.07897 2.267857,-17.38691 0.311254,-6.53633 -0.326775,-13.11925 0,-19.65476 0.0571,-1.1421 1.32348,-14.3676 1.511905,-15.875 0.707544,-5.66035 2.217291,-11.16231 3.779762,-16.63095 1.200473,-4.20165 1.336723,-5.35984 3.023809,-9.07143 1.398953,-3.077697 3.02381,-6.047618 4.535715,-9.071427 1.511904,-3.023809 3.13676,-5.993733 4.535713,-9.07143 0.561522,-1.235345 0.838658,-2.601577 1.511906,-3.779761 0.53041,-0.928219 1.511903,-1.511906 2.267857,-2.267858"
       id="path3713"
       inkscape:connector-curvature="0" />
    <path
       style="fill:none;stroke:#000000;stroke-width:0.26458332px;stroke-linecap:butt;stroke-linejoin:miter;stroke-opacity:1"
       d="m 41.577381,73.238092 c 0,-1.007936 -1.007938,-3.023807 0,-3.023807 1.007936,0 0,2.015871 0,3.023807 0,1.511906 0,3.023812 0,4.535717 0,1.511904 0.107717,3.027651 0,4.535713 -0.109778,1.536898 -1.052925,8.594418 -1.511906,10.583333 -0.412498,1.787493 -1.152136,3.49282 -1.511903,5.291667 -0.398423,1.992108 -0.263229,4.076718 -0.755954,6.047618 -1.122775,4.49111 -2.953316,7.44204 -5.291667,11.33929 -1.223065,2.03844 -2.311066,4.17837 -3.779761,6.04762 -4.122837,5.24724 -11.442062,10.03521 -17.386904,12.85119 -2.4527016,1.1618 -5.0706399,1.94168 -7.5595242,3.02381 -3.30866361,1.43855 -6.4775635,3.19578 -9.8273808,4.53571 -2.9594034,1.18376 -6.015379,2.11831 -9.071428,3.02381 -8.519372,2.52426 -16.95103,4.41946 -25.70238,6.04762 -18.506532,3.44307 -37.155842,5.62953 -55.940478,6.80357 -5.789815,0.36186 -11.587435,0.61787 -17.386905,0.75595 -4.78634,0.11396 -9.5754,0 -14.36309,0 -4.28373,0 -8.56746,0 -12.85119,0 -3.52778,0 -7.05556,0 -10.58334,0 -9.75319,0 -10.90256,0.67615 -19.65476,-1.5119 -2.31915,-0.57979 -4.69085,-1.14936 -6.80357,-2.26786 -2.58471,-1.36837 -9.04055,-7.10108 -11.33929,-9.07143"
       id="path3715"
       inkscape:connector-curvature="0" />
    <path
       style="fill:none;stroke:#000000;stroke-width:0.26458332px;stroke-linecap:butt;stroke-linejoin:miter;stroke-opacity:1"
       d="m -173.11309,-2.3571428 c 3.68582,2.94866114 4.27908,3.19508109 7.55952,6.8035712 1.32386,1.4562458 2.44487,3.0895779 3.77976,4.5357142 1.69198,1.8329784 3.70589,3.3660744 5.29167,5.2916664 1.95534,2.374348 3.37019,5.157682 5.29167,7.559524 2.11777,2.647223 4.58773,4.993819 6.80357,7.559523 6.19988,7.17881 11.89664,14.784088 18.14285,21.92262 3.40466,3.891034 7.05556,7.559525 10.58334,11.339285 4.03174,4.535715 8.11615,9.025163 12.09524,13.607143 12.001429,13.819835 14.316655,17.482248 27.21428,30.994046 11.564702,12.1154 23.930623,23.44733 35.529763,35.52976 73.812841,76.88838 -35.256721,-34.50076 36.2857128,37.04167 C 13.950359,198.31345 13.421315,199.04584 31.75,219.1369 c 12.186684,14.23229 25.893635,27.03617 38.553572,40.82143 5.43551,5.91868 10.326415,12.33006 15.874999,18.14285 8.571582,8.97975 21.252909,20.07204 30.994049,27.97024 4.33778,3.51714 18.07559,13.88298 23.43452,17.38691 2.92996,1.91575 6.06962,3.49057 9.07143,5.29167 2.03844,1.22306 4.06966,2.46113 6.04762,3.77976 1.80359,1.2024 3.4193,2.68756 5.29167,3.77976 0.0184,0.0106 7.48427,2.99037 7.55952,3.02381 6.18472,2.74876 -0.36724,0.33475 6.80357,3.02382 2.90002,1.08749 1.95568,0.55875 5.29167,1.51188 0.76618,0.21892 1.48185,0.62497 2.26785,0.75597 0.74567,0.12427 1.51951,-0.10692 2.26786,0 1.02852,0.14692 1.99899,0.58515 3.02381,0.75594 0.49711,0.0829 1.00794,0 1.51191,0 1.00793,0 2.01587,0 3.02381,0 3.0238,0 6.04761,0 9.07142,0"
       id="path3717"
       inkscape:connector-curvature="0" />
    <path
       style="fill:none;stroke:#000000;stroke-width:0.26458332px;stroke-linecap:butt;stroke-linejoin:miter;stroke-opacity:1"
       d="m 263.07142,290.95237 c -1.76388,0 -3.52777,0 -5.29166,0 -2.01587,0 -4.03453,-0.10594 -6.04762,0 -5.74969,0.30263 -11.75863,1.10339 -17.3869,2.26787 -4.30945,0.8916 -8.55528,2.06915 -12.85119,3.02379 -7.93169,1.7626 -24.19677,5.15901 -31.75,6.04764 -7.02509,0.82648 -14.10227,1.15268 -21.16667,1.51191 -23.41451,1.19057 -46.87058,0.75594 -70.303572,0.75594 -0.904076,0 -49.57355,0 -51.40476,0 -9.07143,0 -18.168014,0.67511 -27.214286,0 C 11.764241,303.97069 4.0348667,302.02018 -3.7797618,300.77976 -11.840181,299.50034 -19.916412,298.3203 -27.970239,297 c -14.635361,-2.39924 -29.237619,-4.99679 -43.845236,-7.55952 -7.05935,-1.23848 -14.104495,-2.55746 -21.166666,-3.77978 -6.041224,-1.04558 -12.106469,-1.95067 -18.142859,-3.02379 -5.30365,-0.94287 -10.53941,-2.28277 -15.875,-3.02382 -3.75213,-0.52112 -7.57124,-0.36615 -11.33928,-0.75594 -3.54468,-0.36671 -7.03109,-1.22775 -10.58334,-1.51191 -2.763,-0.22106 -5.54365,0 -8.31547,0 -2.77183,0 -5.54366,0 -8.31548,0 -5.29167,0 -10.58333,0 -15.875,0 -1.00794,0 -2.01587,0 -3.02381,0 -1.5119,0 -3.03306,0.16695 -4.53571,0 -1.20103,-0.13345 -2.68748,-0.96578 -3.77977,-1.51191 -0.50396,-0.25199 -0.95939,-0.64545 -1.5119,-0.75596 -0.74127,-0.14825 -1.5119,0 -2.26786,0 -1.00793,-0.25197 -2.01587,-0.50396 -3.0238,-0.75594"
       id="path3719"
       inkscape:connector-curvature="0" />
    <path
       style="fill:none;stroke:#000000;stroke-width:0.26458332px;stroke-linecap:butt;stroke-linejoin:miter;stroke-opacity:1"
       d="m -89.958332,216.86904 c 8.643024,-2.60558 17.715325,-3.18128 26.458333,-5.29166 3.33167,-0.8042 6.481641,-2.28031 9.827381,-3.02381 3.478734,-0.77305 7.061176,-0.97004 10.583334,-1.5119 3.02987,-0.46614 6.029581,-1.13168 9.071427,-1.51191 3.01086,-0.37636 6.048544,-0.49309 9.071429,-0.75595 2.772792,-0.24111 5.53537,-0.62357 8.315476,-0.75596 2.516989,-0.11985 5.039682,0 7.5595236,0 1.4720999,0 20.5531914,0 21.1666664,0 13.355158,0 26.710318,0 40.065476,0 5.039683,0 10.079366,0 15.119046,0 2.267857,0 4.535715,0 6.803572,0 2.015874,0 4.034851,0.11182 6.047619,0 2.528705,-0.14048 9.029623,-0.80445 12.095239,-1.5119 1.787493,-0.4125 3.497916,-1.12753 5.291666,-1.51191 1.742244,-0.37333 3.549424,-0.38261 5.291664,-0.75595 6.27747,-1.34517 5.1022,-1.65706 11.33929,-4.53571 1.23208,-0.56865 2.58498,-0.86856 3.77976,-1.51191 4.18614,-2.25407 7.84275,-5.43327 12.09524,-7.55952 2.42743,-1.21372 5.13209,-1.81009 7.55952,-3.02381 2.62838,-1.31419 4.98466,-3.11954 7.55953,-4.53571 2.46853,-1.3577 5.03968,-2.51984 7.55952,-3.77976"
       id="path3721"
       inkscape:connector-curvature="0" />
    <path
       style="fill:none;stroke:#000000;stroke-width:0.26458332px;stroke-linecap:butt;stroke-linejoin:miter;stroke-opacity:1"
       d="m 107.34524,67.946428 c -2.26786,1.007935 -4.53572,2.015874 -6.80357,3.023809 -2.519846,0.755952 -5.134898,1.24696 -7.559529,2.267857 -4.647205,1.956719 -8.483621,5.133097 -12.85119,7.559525 -2.462734,1.368186 -5.164098,2.296879 -7.559524,3.77976 -1.892589,1.171604 -16.02803,11.820321 -17.386904,12.851191 -12.947226,9.82203 -13.125844,9.87362 -25.702381,20.41071 -5.069983,4.24783 -10.079365,8.56746 -15.119047,12.8512 -5.0396825,4.28372 -10.3817019,8.23531 -15.11904738,12.85119 -5.93075472,5.77868 -23.13159362,25.81723 -27.97023762,32.50595 -7.588491,10.48997 -14.734046,23.44014 -21.166667,34.77381 -2.283328,4.023 -4.23763,8.24633 -6.80357,12.09524 -2.488636,3.73295 -5.733555,6.91428 -8.315478,10.58333 -2.369794,3.3676 -8.583107,13.96057 -10.583333,18.14285 -16.431321,34.35641 7.172169,-11.20994 -8.315476,15.11906 -0.819819,1.39369 -4.353147,10.06179 -5.291667,12.09524 -4.070741,8.81994 -0.329821,0.83008 -4.535712,7.55952 -0.59726,0.95562 -1.007938,2.01586 -1.511906,3.02381 -0.251984,0.50396 -0.357531,1.11348 -0.755951,1.51189 -0.178181,0.17819 -0.577774,-0.17817 -0.755955,0 -0.356359,0.35636 0.35636,1.15556 0,1.5119 -0.178178,0.1782 -0.503967,0 -0.755951,0 -1.007936,0 -2.015874,0 -3.023814,0"
       id="path3723"
       inkscape:connector-curvature="0" />
    <path
       style="fill:none;stroke:#000000;stroke-width:0.26458332px;stroke-linecap:butt;stroke-linejoin:miter;stroke-opacity:1"
       d="m -196.54762,178.31547 c 7.55474,7.55474 1.28907,1.78618 9.82738,8.31548 2.56337,1.96022 4.89106,4.23306 7.55953,6.04762 4.20406,2.85876 24.60378,14.40659 27.21428,15.875 24.57063,13.82098 15.99017,9.35718 41.57738,21.16667 7.34956,3.3921 47.272122,21.84562 55.184527,24.94642 9.42251,3.69261 19.075714,6.77987 28.72619,9.82738 13.611594,4.29841 40.86984,11.81568 55.184523,15.11905 7.511807,1.7335 15.140467,2.92042 22.67857,4.53573 4.951704,1.06106 33.365643,7.71805 38.553572,9.07142 5.3252,1.38917 10.593168,2.98979 15.874998,4.5357 5.04974,1.47799 10.15743,2.78456 15.11905,4.53573 3.6193,1.27741 6.98415,3.20267 10.58333,4.5357 3.214,1.19038 6.60638,1.85253 9.82738,3.02381 19.31803,7.02474 -5.50108,-0.67966 13.60715,5.29167 1.75096,0.54718 3.55133,0.93181 5.29166,1.51191 1.28734,0.4291 2.50919,1.03544 3.77976,1.51191 0.74611,0.27979 1.52801,0.46 2.26786,0.75594 0.52315,0.20926 0.97737,0.57777 1.51191,0.75597 0.23905,0.0797 0.50397,0 0.75595,0 0.50397,0 1.02298,0.12221 1.5119,0 1.65091,-0.41273 2.64779,-1.89186 3.77977,-3.02382"
       id="path3725"
       inkscape:connector-curvature="0" />
    <path
       style="fill:none;stroke:#000000;stroke-width:0.26458332px;stroke-linecap:butt;stroke-linejoin:miter;stroke-opacity:1"
       d="m 196.54762,179.82738 c -1.68122,0.5066 -14.14202,7.44898 -14.3631,7.55952 -3.22697,1.61349 -6.66841,2.79284 -9.82738,4.53572 -4.16287,2.29675 -7.99723,5.14893 -12.09524,7.55952 -22.12144,13.01261 -5.35911,2.05662 -29.48214,16.63095 -10.94102,6.6102 -26.87208,17.48358 -38.55357,23.43453 -7.135606,3.63511 -14.632239,6.51357 -21.922618,9.82738 -9.616509,4.37114 -28.585046,13.39949 -38.553572,17.38691 -6.216509,2.48661 -12.629726,4.45265 -18.89881,6.80357 -10.471793,3.92692 -23.298898,9.4406 -34.017856,12.85119 -14.114325,4.4909 -28.591452,7.02135 -43.089285,9.82736 -8.57032,1.65878 -12.704789,2.76434 -21.166666,3.77979 -8.217834,0.98613 -9.340215,0.75594 -17.386903,0.75594 -7.42231,0 -10.75771,0.25111 -18.14286,-0.75594 -2.54618,-0.34722 -5.12165,-0.6993 -7.55952,-1.51191 -2.13816,-0.71274 -4.05896,-1.96321 -6.04762,-3.02382 -5.89,-3.14132 -4.8067,-2.55529 -9.82738,-6.80357 -1.77348,-1.50064 -3.64893,-2.89298 -5.29167,-4.5357 -1.64274,-1.64275 -3.02381,-3.5278 -4.53571,-5.29167"
       id="path3727"
       inkscape:connector-curvature="0" />
    <path
       style="fill:none;stroke:#000000;stroke-width:0.26458332px;stroke-linecap:butt;stroke-linejoin:miter;stroke-opacity:1"
       d="m -80.886905,123.8869 c 9.323414,0 18.646825,0 27.970239,0 8.419393,0 15.004841,0.23578 23.434524,-0.75595 4.566783,-0.53727 9.046194,-1.68312 13.607142,-2.26786 5.272457,-0.67595 10.6317138,-0.63802 15.875,-1.5119 5.3655782,-0.89426 10.583333,-2.51984 15.875,-3.77976 5.291666,-1.25992 10.654421,-2.25179 15.875,-3.77976 5.124468,-1.49985 10.079365,-3.52778 15.119048,-5.29167 21.501666,-7.525583 8.437808,-2.64829 27.970236,-10.583333 3.77158,-1.532205 7.646919,-2.821403 11.339287,-4.535715 1.859349,-0.863269 15.682299,-8.53852 18.142859,-9.827382 2.49562,-1.307232 5.1556,-2.310696 7.55952,-3.779761 0.10133,-0.06193 8.71394,-6.446086 9.82738,-7.559524 0.93766,-0.937662 2.9213,-4.003963 3.77976,-5.291666"
       id="path3729"
       inkscape:connector-curvature="0" />
    <path
       style="fill:none;stroke:#000000;stroke-width:0.26458332px;stroke-linecap:butt;stroke-linejoin:miter;stroke-opacity:1"
       d="m 125.48809,64.922619 c 0.25198,0.251984 0.80016,0.402344 0.75596,0.755951 -0.53976,4.318048 -2.35776,6.554325 -3.77977,10.583334 -1.52634,4.324641 -2.7339,10.083792 -4.53571,14.363096 -1.09326,2.596494 -2.51984,5.03968 -3.77976,7.559522 -1.00794,3.527778 -1.7226,7.152878 -3.02381,10.583328 -1.47929,3.89996 -3.6486,7.50546 -5.29167,11.33929 -2.13815,4.98903 -3.92454,10.12358 -6.047616,15.11905 -2.161617,5.08615 -4.936382,9.91759 -6.803573,15.11905 -1.672666,4.65957 -2.454735,9.593 -3.77976,14.36309 -1.195076,4.30227 -2.6049,8.54336 -3.779764,12.85119 -1.913572,7.01644 -3.527777,14.11111 -5.291666,21.16667 -0.503968,2.01587 -1.237279,3.98793 -1.511904,6.04762 -0.233121,1.74841 0.289981,3.55178 0,5.29166 -0.223086,1.33852 -1.082791,2.49242 -1.511905,3.77977 -0.251984,1.00793 -0.503968,2.01587 -0.755952,3.0238 0,0.25199 0.06111,0.5115 0,0.75596 -0.193262,0.77305 -0.503968,1.5119 -0.755952,2.26785"
       id="path3731"
       inkscape:connector-curvature="0" />
    <ellipse
       id="path3733"
       cx="28.348215"
       cy="152.99106"
       rx="47.247025"
       ry="66.901779"
       style="stroke-width:0.26458332" />
    <g
       sodipodi:type="inkscape:box3d"
       id="g3737"
       inkscape:perspectiveID="#perspective3735"
       inkscape:corner0="1.0130093 : 0.11578553 : 0 : 1"
       inkscape:corner7="-0.23682615 : -0.0049851601 : 0.25 : 1">
      <path
         sodipodi:type="inkscape:box3dside"
         id="path3739"
         style="fill:#353564;fill-rule:evenodd;stroke:none;stroke-linejoin:round"
         inkscape:box3dsidetype="6"
         d="m 52.160714,115.57143 v 59.9951 l 17.436881,-2.99011 v -53.36729 z"
         points="52.160714,175.56653 69.597595,172.57642 69.597595,119.20913 52.160714,115.57143 " />
      <path
         sodipodi:type="inkscape:box3dside"
         id="path3747"
         style="fill:#afafde;fill-rule:evenodd;stroke:none;stroke-linejoin:round"
         inkscape:box3dsidetype="13"
         d="m 52.160714,175.56653 85.422616,44.32633 17.86877,-17.61614 -85.854505,-29.7003 z"
         points="137.58333,219.89286 155.4521,202.27672 69.597595,172.57642 52.160714,175.56653 " />
      <path
         sodipodi:type="inkscape:box3dside"
         id="path3749"
         style="fill:#e9e9ff;fill-rule:evenodd;stroke:none;stroke-linejoin:round"
         inkscape:box3dsidetype="11"
         d="M 69.597595,119.20913 155.4521,83.076357 V 202.27672 l -85.854505,-29.7003 z"
         points="155.4521,83.076357 155.4521,202.27672 69.597595,172.57642 69.597595,119.20913 " />
      <path
         sodipodi:type="inkscape:box3dside"
         id="path3741"
         style="fill:#4d4d9f;fill-rule:evenodd;stroke:none;stroke-linejoin:round"
         inkscape:box3dsidetype="5"
         d="M 52.160714,115.57143 137.58333,61.644921 155.4521,83.076357 69.597595,119.20913 Z"
         points="137.58333,61.644921 155.4521,83.076357 69.597595,119.20913 52.160714,115.57143 " />
      <path
         sodipodi:type="inkscape:box3dside"
         id="path3745"
         style="fill:#d7d7ff;fill-rule:evenodd;stroke:none;stroke-linejoin:round"
         inkscape:box3dsidetype="14"
         d="M 137.58333,61.644921 V 219.89286 L 155.4521,202.27672 V 83.076357 Z"
         points="137.58333,219.89286 155.4521,202.27672 155.4521,83.076357 137.58333,61.644921 " />
      <path
         sodipodi:type="inkscape:box3dside"
         id="path3743"
         style="fill:#8686bf;fill-rule:evenodd;stroke:none;stroke-linejoin:round"
         inkscape:box3dsidetype="3"
         d="M 52.160714,115.57143 137.58333,61.644921 V 219.89286 L 52.160714,175.56653 Z"
         points="137.58333,61.644921 137.58333,219.89286 52.160714,175.56653 52.160714,115.57143 " />
    </g>
  </g>
</svg>
